<svg width="642" height="23" viewBox="0 0 642 23" fill="none" xmlns="http://www.w3.org/2000/svg">
<path d="M33.647 0.000405561C41.2612 0.000406214 45.0886 5.35119 48.7531 10.5411C52.4176 15.7309 55.7564 20.4381 62.5969 20.4381C69.4373 20.4381 72.8575 15.6505 76.4814 10.5411C80.1052 5.43166 83.9326 0.000409876 91.5873 0.000410533C99.2421 0.00041119 103.029 5.3512 106.693 10.5411C110.358 15.731 113.697 20.4381 120.537 20.4381C127.378 20.4381 130.798 15.6505 134.422 10.5411C138.046 5.43166 141.873 0.000414848 149.528 0.000415505C157.183 0.000416161 160.969 5.3512 164.634 10.5411C168.298 15.731 171.637 20.4381 178.518 20.4381C185.399 20.4381 188.738 15.6505 192.362 10.5411C195.986 5.43167 199.813 0.00041982 207.468 0.000420476C215.123 0.000421133 218.909 5.35121 222.574 10.5411C226.239 15.731 229.577 20.4381 236.459 20.4381C243.34 20.4381 246.678 15.6505 250.302 10.5411C253.926 5.43167 257.754 0.000424791 265.408 0.000425448C273.063 0.000426105 276.85 5.35121 280.514 10.5411C284.179 15.731 287.518 20.4381 294.399 20.4381C301.28 20.4381 304.619 15.6505 308.243 10.5411C311.866 5.43168 315.694 0.000429763 323.349 0.00043042C331.003 0.000431077 334.79 5.35122 338.455 10.5411C342.119 15.731 345.458 20.4381 352.339 20.4381C359.22 20.4381 362.559 15.6505 366.183 10.5411C369.807 5.43168 373.634 0.000434735 381.289 0.000435392C388.944 0.000436049 392.73 5.35122 396.395 10.5411C400.059 15.731 403.398 20.4381 410.279 20.4381C417.161 20.4381 420.499 15.6505 424.123 10.5411C427.747 5.43169 431.574 0.000439707 439.229 0.000440364C446.884 0.000441021 450.671 5.35123 454.335 10.5411C458 15.731 461.339 20.4381 468.22 20.4381C475.101 20.4381 478.44 15.6505 482.064 10.5411C485.687 5.43169 489.515 0.000444679 497.17 0.000445336C504.824 0.000445993 508.611 5.35123 512.276 10.5411C515.94 15.731 519.279 20.4381 526.119 20.4381C532.96 20.4381 536.38 15.6505 540.004 10.5411C543.628 5.4317 547.455 0.000449651 555.11 0.000450308C562.765 0.000450964 566.551 5.35124 570.216 10.5411C573.88 15.731 577.219 20.4381 584.06 20.4381C590.9 20.4381 594.32 15.6505 597.944 10.5411C601.568 5.4317 605.395 0.000454623 613.05 0.000455279C620.705 0.000455936 624.492 5.35124 628.156 10.5411C631.821 15.731 635.16 20.4381 642 20.4381L642 22.0072C634.386 22.0072 630.559 16.6563 626.894 11.4664C623.229 6.27655 619.891 1.56949 613.05 1.56949C606.21 1.56949 602.79 6.35701 599.166 11.4664C595.542 16.5758 591.714 22.0072 584.06 22.0072C576.405 22.0072 572.618 16.6563 568.954 11.4664C565.289 6.27655 561.95 1.56948 555.11 1.56948C548.269 1.56948 544.849 6.35701 541.266 11.4664C537.683 16.5758 533.774 22.0071 526.119 22.0071C518.465 22.0071 514.719 16.6563 511.013 11.4664C507.308 6.27654 504.01 1.56948 497.17 1.56948C490.329 1.56948 486.909 6.357 483.326 11.4664C479.743 16.5758 475.834 22.0071 468.22 22.0071C460.606 22.0071 456.778 16.6563 453.073 11.4664C449.368 6.27654 446.07 1.56947 439.229 1.56947C432.389 1.56947 428.969 6.357 425.385 11.4664C421.802 16.5758 417.894 22.0071 410.279 22.0071C402.665 22.0071 398.838 16.6563 395.133 11.4664C391.427 6.27653 388.129 1.56947 381.289 1.56947C374.448 1.56947 371.028 6.35699 367.445 11.4664C363.862 16.5758 359.953 22.0071 352.339 22.0071C344.725 22.0071 340.898 16.6563 337.192 11.4664C333.487 6.27653 330.189 1.56946 323.349 1.56946C316.508 1.56946 313.088 6.35699 309.505 11.4664C305.922 16.5758 302.013 22.0071 294.399 22.0071C286.785 22.0071 282.957 16.6563 279.252 11.4664C275.547 6.27652 272.249 1.56946 265.408 1.56946C258.568 1.56946 255.148 6.35698 251.565 11.4664C247.981 16.5758 244.073 22.0071 236.459 22.0071C228.844 22.0071 225.017 16.6563 221.312 11.4664C217.607 6.27652 214.308 1.56945 207.468 1.56945C200.628 1.56945 197.207 6.35698 193.624 11.4664C190.041 16.5758 186.132 22.0071 178.518 22.0071C170.904 22.0071 167.077 16.6563 163.371 11.4664C159.666 6.27651 156.368 1.56945 149.528 1.56945C142.687 1.56945 139.267 6.35697 135.684 11.4664C132.101 16.5758 128.192 22.0071 120.537 22.0071C112.882 22.0071 109.136 16.6563 105.431 11.4664C101.726 6.27651 98.4278 1.56944 91.5873 1.56944C84.7469 1.56944 81.3267 6.35697 77.7436 11.4664C74.1605 16.5758 70.2516 22.0071 62.5969 22.0071C54.9421 22.0071 51.1553 16.6563 47.4908 11.4664C43.8263 6.2765 40.4875 1.56944 33.647 1.56944C26.8066 1.56944 23.3864 6.35696 19.7626 11.4664C16.1387 16.5758 12.3113 22.0071 4.65655 22.0071L4.65655 20.4381C11.497 20.4381 14.9172 15.6505 18.5003 10.5411C22.0834 5.43165 25.9922 0.000404904 33.647 0.000405561Z" fill="#BE754A"/>
<path d="M611.055 18.9093C611.05 18.4568 611.135 18.0078 611.307 17.5883C611.478 17.1687 611.732 16.787 612.054 16.4651C612.376 16.1433 612.76 15.8878 613.182 15.7134C613.605 15.5391 614.058 15.4493 614.516 15.4494C614.974 15.4493 615.427 15.5391 615.85 15.7134C616.273 15.8878 616.656 16.1433 616.978 16.4651C617.3 16.787 617.554 17.1687 617.725 17.5883C617.897 18.0078 617.982 18.4568 617.977 18.9093C617.982 19.3636 617.897 19.8146 617.726 20.2364C617.555 20.6582 617.302 21.0426 616.98 21.3676C616.659 21.6927 616.276 21.9519 615.853 22.1307C615.43 22.3094 614.976 22.4041 614.516 22.4094C614.056 22.4041 613.602 22.3094 613.179 22.1307C612.756 21.9519 612.373 21.6927 612.052 21.3676C611.73 21.0426 611.477 20.6582 611.306 20.2364C611.135 19.8146 611.05 19.3636 611.055 18.9093Z" fill="#BE754A"/>
<path d="M552.789 18.9092C552.784 18.4567 552.869 18.0077 553.041 17.5881C553.212 17.1686 553.466 16.7869 553.788 16.465C554.11 16.1432 554.493 15.8877 554.916 15.7133C555.339 15.539 555.792 15.4492 556.25 15.4492C556.708 15.4492 557.161 15.539 557.584 15.7133C558.006 15.8877 558.39 16.1432 558.712 16.465C559.034 16.7869 559.288 17.1686 559.459 17.5881C559.631 18.0077 559.716 18.4567 559.711 18.9092C559.716 19.3635 559.631 19.8145 559.46 20.2363C559.289 20.6581 559.036 21.0425 558.714 21.3675C558.393 21.6925 558.01 21.9518 557.587 22.1306C557.164 22.3093 556.71 22.404 556.25 22.4093C555.79 22.404 555.336 22.3093 554.913 22.1306C554.49 21.9518 554.107 21.6925 553.786 21.3675C553.464 21.0425 553.211 20.6581 553.04 20.2363C552.869 19.8145 552.784 19.3635 552.789 18.9092Z" fill="#BE754A"/>
<path d="M494.564 18.9092C494.58 18.2365 494.796 17.5835 495.186 17.0318C495.576 16.4801 496.122 16.0544 496.756 15.8079C497.389 15.5613 498.082 15.505 498.748 15.6459C499.414 15.7867 500.023 16.1186 500.499 16.5999C500.975 17.0812 501.297 17.6905 501.424 18.3516C501.551 19.0126 501.478 19.696 501.214 20.3162C500.949 20.9364 500.506 21.4658 499.939 21.8381C499.371 22.2105 498.706 22.4091 498.025 22.4093C497.565 22.404 497.111 22.3093 496.688 22.1306C496.265 21.9518 495.882 21.6926 495.56 21.3675C495.239 21.0425 494.986 20.6582 494.815 20.2364C494.644 19.8145 494.558 19.3636 494.564 18.9092Z" fill="#BE754A"/>
<path d="M436.298 18.9092C436.298 18.0022 436.662 17.1324 437.311 16.4911C437.96 15.8497 438.841 15.4894 439.759 15.4894C440.676 15.4894 441.557 15.8497 442.206 16.4911C442.855 17.1324 443.219 18.0022 443.219 18.9092C443.219 19.8161 442.855 20.686 442.206 21.3273C441.557 21.9686 440.676 22.3289 439.759 22.3289C438.841 22.3289 437.96 21.9686 437.311 21.3273C436.662 20.686 436.298 19.8161 436.298 18.9092Z" fill="#BE754A"/>
<path d="M378.031 18.9093C378.031 18.0023 378.396 17.1325 379.045 16.4912C379.694 15.8498 380.575 15.4895 381.492 15.4895C382.41 15.4895 383.291 15.8498 383.94 16.4912C384.589 17.1325 384.953 18.0023 384.953 18.9093C384.953 19.8162 384.589 20.6861 383.94 21.3274C383.291 21.9687 382.41 22.329 381.492 22.329C380.575 22.329 379.694 21.9687 379.045 21.3274C378.396 20.6861 378.031 19.8162 378.031 18.9093Z" fill="#BE754A"/>
<path d="M323.227 22.4094C321.315 22.4094 319.766 20.8423 319.766 18.9092C319.766 16.9761 321.315 15.409 323.227 15.409C325.138 15.409 326.687 16.9761 326.687 18.9092C326.687 20.8423 325.138 22.4094 323.227 22.4094Z" fill="#BE754A"/>
<path d="M265.001 22.4095C263.09 22.4095 261.54 20.8424 261.54 18.9093C261.54 16.9762 263.09 15.4091 265.001 15.4091C266.913 15.4091 268.462 16.9762 268.462 18.9093C268.462 20.8424 266.913 22.4095 265.001 22.4095Z" fill="#BE754A"/>
<path d="M206.735 22.4094C204.824 22.4094 203.274 20.8423 203.274 18.9092C203.274 16.9761 204.824 15.409 206.735 15.409C208.647 15.409 210.196 16.9761 210.196 18.9092C210.196 20.8423 208.647 22.4094 206.735 22.4094Z" fill="#BE754A"/>
<path d="M148.469 22.4095C146.558 22.4095 145.008 20.8424 145.008 18.9093C145.008 16.9761 146.558 15.409 148.469 15.409C150.38 15.409 151.93 16.9761 151.93 18.9093C151.93 20.8424 150.38 22.4095 148.469 22.4095Z" fill="#BE754A"/>
<path d="M90.2437 22.4094C88.3322 22.4094 86.7827 20.8423 86.7827 18.9092C86.7827 16.976 88.3322 15.4089 90.2437 15.4089C92.1551 15.4089 93.7046 16.976 93.7046 18.9092C93.7046 20.8423 92.1551 22.4094 90.2437 22.4094Z" fill="#BE754A"/>
<path d="M31.9777 22.4095C30.0663 22.4095 28.5168 20.8424 28.5168 18.9093C28.5168 16.9761 30.0663 15.409 31.9777 15.409C33.8892 15.409 35.4387 16.9761 35.4387 18.9093C35.4387 20.8424 33.8892 22.4095 31.9777 22.4095Z" fill="#BE754A"/>
<path d="M581.535 7.00081C581.53 6.54644 581.615 6.09552 581.786 5.67371C581.957 5.2519 582.21 4.86747 582.532 4.54245C582.853 4.21742 583.236 3.95814 583.659 3.77939C584.082 3.60064 584.536 3.50594 584.996 3.50069C585.456 3.50594 585.91 3.60064 586.333 3.77939C586.756 3.95814 587.139 4.21742 587.46 4.54245C587.782 4.86747 588.035 5.2519 588.206 5.67371C588.377 6.09552 588.462 6.54644 588.457 7.00081C588.462 7.45326 588.377 7.90228 588.205 8.32183C588.034 8.74137 587.78 9.12317 587.458 9.44499C587.136 9.76681 586.753 10.0223 586.33 10.1966C585.907 10.371 585.454 10.4608 584.996 10.4607C584.538 10.4608 584.085 10.371 583.662 10.1966C583.24 10.0223 582.856 9.76681 582.534 9.44499C582.212 9.12317 581.958 8.74137 581.787 8.32182C581.615 7.90227 581.53 7.45326 581.535 7.00081Z" fill="#BE754A"/>
<path d="M523.269 7.00081C523.264 6.54644 523.349 6.09552 523.52 5.67371C523.691 5.2519 523.945 4.86747 524.266 4.54245C524.587 4.21742 524.97 3.95814 525.393 3.77939C525.816 3.60064 526.27 3.50594 526.73 3.50069C527.19 3.50594 527.644 3.60064 528.067 3.77939C528.49 3.95814 528.873 4.21742 529.194 4.54245C529.516 4.86747 529.769 5.2519 529.94 5.67371C530.111 6.09552 530.197 6.54644 530.191 7.00081C530.197 7.45326 530.111 7.90228 529.939 8.32183C529.768 8.74137 529.514 9.12317 529.192 9.44499C528.87 9.76681 528.487 10.0223 528.064 10.1966C527.642 10.371 527.188 10.4608 526.73 10.4607C526.272 10.4608 525.819 10.371 525.396 10.1966C524.974 10.0223 524.59 9.76681 524.269 9.44499C523.947 9.12317 523.693 8.74137 523.521 8.32182C523.349 7.90227 523.264 7.45326 523.269 7.00081Z" fill="#BE754A"/>
<path d="M465.003 7.00071C465.003 6.09375 465.368 5.224 466.017 4.58268C466.666 3.94137 467.546 3.58107 468.464 3.58107C469.382 3.58107 470.262 3.94137 470.911 4.58268C471.56 5.224 471.925 6.09375 471.925 7.00071C471.925 7.90766 471.56 8.77748 470.911 9.4188C470.262 10.0601 469.382 10.4204 468.464 10.4204C467.546 10.4204 466.666 10.0601 466.017 9.4188C465.368 8.77748 465.003 7.90766 465.003 7.00071Z" fill="#BE754A"/>
<path d="M406.778 7.00071C406.778 6.09375 407.142 5.224 407.792 4.58268C408.441 3.94137 409.321 3.58107 410.239 3.58107C411.157 3.58107 412.037 3.94137 412.686 4.58268C413.335 5.224 413.7 6.09375 413.7 7.00071C413.7 7.90766 413.335 8.77748 412.686 9.4188C412.037 10.0601 411.157 10.4204 410.239 10.4204C409.321 10.4204 408.441 10.0601 407.792 9.4188C407.142 8.77748 406.778 7.90766 406.778 7.00071Z" fill="#BE754A"/>
<path d="M348.512 7.00071C348.512 6.09375 348.877 5.224 349.526 4.58268C350.175 3.94137 351.055 3.58107 351.973 3.58107C352.891 3.58107 353.771 3.94137 354.42 4.58268C355.069 5.224 355.434 6.09375 355.434 7.00071C355.434 7.90766 355.069 8.77748 354.42 9.4188C353.771 10.0601 352.891 10.4204 351.973 10.4204C351.055 10.4204 350.175 10.0601 349.526 9.4188C348.877 8.77748 348.512 7.90766 348.512 7.00071Z" fill="#BE754A"/>
<path d="M290.409 7.00071C290.409 6.09375 290.773 5.224 291.422 4.58268C292.071 3.94137 292.952 3.58107 293.87 3.58107C294.788 3.58107 295.668 3.94137 296.317 4.58268C296.966 5.224 297.331 6.09375 297.331 7.00071C297.331 7.90766 296.966 8.77748 296.317 9.4188C295.668 10.0601 294.788 10.4204 293.87 10.4204C292.952 10.4204 292.071 10.0601 291.422 9.4188C290.773 8.77748 290.409 7.90766 290.409 7.00071Z" fill="#BE754A"/>
<path d="M232.021 7.00075C232.029 6.32617 232.238 5.66907 232.623 5.11203C233.009 4.55499 233.552 4.12295 234.185 3.87028C234.818 3.61761 235.513 3.55562 236.181 3.69207C236.85 3.82853 237.463 4.15733 237.943 4.63714C238.423 5.11694 238.748 5.7263 238.879 6.38853C239.009 7.05075 238.938 7.73625 238.675 8.35876C238.412 8.98128 237.968 9.513 237.4 9.88701C236.832 10.261 236.164 10.4606 235.481 10.4606C235.024 10.4606 234.57 10.3709 234.148 10.1965C233.725 10.0222 233.342 9.76671 233.02 9.4449C232.698 9.12308 232.444 8.74129 232.272 8.32175C232.101 7.9022 232.015 7.45319 232.021 7.00075Z" fill="#BE754A"/>
<path d="M173.754 7.0006C173.754 6.09365 174.119 5.22389 174.768 4.58258C175.417 3.94126 176.297 3.58096 177.215 3.58096C178.133 3.58096 179.014 3.94126 179.663 4.58258C180.312 5.22389 180.676 6.09365 180.676 7.0006C180.676 7.90756 180.312 8.77738 179.663 9.41869C179.014 10.06 178.133 10.4203 177.215 10.4203C176.297 10.4203 175.417 10.06 174.768 9.41869C174.119 8.77738 173.754 7.90756 173.754 7.0006Z" fill="#BE754A"/>
<path d="M115.325 7.00066C115.325 6.09369 115.69 5.22391 116.339 4.58259C116.988 3.94127 117.868 3.58096 118.786 3.58096C119.704 3.58096 120.585 3.94127 121.234 4.58259C121.883 5.22392 122.247 6.09369 122.247 7.00066C122.247 7.90762 121.883 8.77746 121.234 9.41878C120.585 10.0601 119.704 10.4204 118.786 10.4204C117.868 10.4204 116.988 10.0601 116.339 9.41878C115.69 8.77746 115.325 7.90762 115.325 7.00066Z" fill="#BE754A"/>
<path d="M57.2222 7.00055C57.2222 6.09358 57.5868 5.22381 58.2359 4.58248C58.8849 3.94116 59.7652 3.58086 60.6831 3.58086C61.601 3.58086 62.4813 3.94116 63.1304 4.58248C63.7794 5.22381 64.144 6.09358 64.144 7.00055C64.144 7.90752 63.7794 8.77735 63.1304 9.41867C62.4813 10.06 61.601 10.4203 60.6831 10.4203C59.7652 10.4203 58.8849 10.06 58.2359 9.41867C57.5868 8.77735 57.2222 7.90752 57.2222 7.00055Z" fill="#BE754A"/>
<path d="M0.992026 7.00066C0.992026 6.09369 1.35668 5.22391 2.00575 4.58259C2.65481 3.94127 3.53511 3.58096 4.45303 3.58096C5.37095 3.58096 6.25128 3.94127 6.90034 4.58259C7.54941 5.22392 7.91406 6.09369 7.91406 7.00066C7.91406 7.90762 7.54941 8.77746 6.90034 9.41878C6.25128 10.0601 5.37094 10.4204 4.45303 10.4204C3.53511 10.4204 2.65481 10.0601 2.00574 9.41878C1.35668 8.77746 0.992026 7.90762 0.992026 7.00066Z" fill="#BE754A"/>
</svg>
