<svg width="28" height="27" viewBox="0 0 28 27" fill="none" xmlns="http://www.w3.org/2000/svg">
<path d="M14.0278 6.39795C10.2979 6.39795 7.27832 9.42086 7.27832 13.1474C7.27832 16.8773 10.3012 19.8969 14.0278 19.8969C17.7577 19.8969 20.7773 16.874 20.7773 13.1474C20.7773 9.41757 17.7544 6.39795 14.0278 6.39795ZM14.0278 17.5284C11.6066 17.5284 9.64689 15.5675 9.64689 13.1474C9.64689 10.7274 11.6077 8.76652 14.0278 8.76652C16.4479 8.76652 18.4087 10.7274 18.4087 13.1474C18.4098 15.5675 16.449 17.5284 14.0278 17.5284Z" fill="white"/>
<path d="M19.4468 0.0826278C17.0267 -0.0302657 11.0324 -0.0247854 8.61008 0.0826278C6.48155 0.182369 4.60401 0.696417 3.09036 2.21007C0.560672 4.73976 0.884007 8.14848 0.884007 13.1476C0.884007 18.264 0.599034 21.5938 3.09036 24.0851C5.62992 26.6235 9.08796 26.2914 14.0279 26.2914C19.096 26.2914 20.8453 26.2947 22.6374 25.6009C25.0739 24.655 26.9131 22.4772 27.0928 18.5654C27.2068 16.1442 27.2002 10.151 27.0928 7.72869C26.8758 3.11102 24.3976 0.310607 19.4468 0.0826278ZM23.2775 22.4114C21.6191 24.0697 19.3185 23.9218 13.9961 23.9218C8.51582 23.9218 6.31824 24.0029 4.71471 22.395C2.86786 20.5569 3.20216 17.6052 3.20216 13.13C3.20216 7.07435 2.5807 2.71315 8.65831 2.40188C10.0547 2.35255 10.4657 2.33611 13.9807 2.33611L14.0301 2.36899C19.8709 2.36899 24.4535 1.7574 24.7286 7.83391C24.7911 9.22042 24.8054 9.63692 24.8054 13.1465C24.8043 18.5632 24.9073 20.7739 23.2775 22.4114Z" fill="white"/>
<path d="M21.0445 7.70863C21.9156 7.70863 22.6217 7.00249 22.6217 6.13141C22.6217 5.26034 21.9156 4.5542 21.0445 4.5542C20.1734 4.5542 19.4673 5.26034 19.4673 6.13141C19.4673 7.00249 20.1734 7.70863 21.0445 7.70863Z" fill="white"/>
</svg>
