<svg width="233" height="164" viewBox="0 0 233 164" fill="none" xmlns="http://www.w3.org/2000/svg">
<circle cx="116" cy="82" r="82" fill="#FFFEFD"/>
<path d="M84.222 126.482C80.4528 126.477 76.8392 124.993 74.1733 122.354C71.5073 119.716 70.0066 116.138 70 112.405V94.3756C69.9995 94.0448 70.0648 93.7172 70.1924 93.4115C70.32 93.1058 70.5072 92.828 70.7434 92.5941C70.9796 92.3602 71.2601 92.1747 71.5688 92.0484C71.8775 91.9221 72.2083 91.8573 72.5423 91.8578C73.2166 91.8578 73.8632 92.1231 74.34 92.5953C74.8167 93.0675 75.0846 93.7079 75.0846 94.3756V112.405C75.0868 114.804 76.0502 117.105 77.7633 118.801C79.4764 120.498 81.7993 121.452 84.222 121.454C86.6447 121.452 88.9676 120.498 90.6807 118.801C92.3938 117.105 93.3572 114.804 93.3594 112.405V86.8181H89.0672C86.5806 86.816 84.1964 85.837 82.4378 84.0961C80.6791 82.3551 79.6896 79.9943 79.6863 77.5317C79.6863 72.165 83.8918 68 89.0672 68C91.5545 68.0022 93.9393 68.9817 95.6981 70.7235C97.4569 72.4654 98.4459 74.8272 98.4481 77.2905V81.7866H133.978V77.4091C133.978 74.9158 134.978 72.5246 136.758 70.7616C138.539 68.9986 140.953 68.0082 143.471 68.0082H143.797C146.314 68.0082 148.729 68.9986 150.509 70.7616C152.289 72.5246 153.289 74.9158 153.289 77.4091C153.289 79.9023 152.289 82.2935 150.509 84.0565C148.729 85.8195 146.314 86.81 143.797 86.81H139.059V123.849C139.059 124.517 138.791 125.158 138.314 125.63C137.837 126.102 137.191 126.367 136.516 126.367C136.183 126.367 135.852 126.302 135.544 126.176C135.235 126.049 134.955 125.864 134.719 125.63C134.483 125.396 134.295 125.118 134.168 124.813C134.04 124.508 133.974 124.18 133.974 123.849V86.8181H98.4481V112.405C98.4415 116.138 96.9402 119.717 94.2734 122.356C91.6065 124.995 87.9918 126.479 84.222 126.482ZM139.059 81.7825H143.801C144.972 81.7814 146.094 81.3203 146.922 80.5004C147.75 79.6804 148.216 78.5687 148.217 77.4091C148.216 76.2495 147.75 75.1377 146.922 74.3178C146.094 73.4978 144.972 73.0367 143.801 73.0356H143.475C142.304 73.0378 141.182 73.4992 140.355 74.319C139.527 75.1387 139.061 76.2498 139.059 77.4091V81.7825ZM89.0672 73.0356C87.9281 73.0367 86.8359 73.4853 86.0305 74.283C85.225 75.0808 84.772 76.1624 84.7709 77.2905C84.7709 79.8737 86.6982 81.7866 89.0672 81.7866H93.3594V77.2905C93.3583 76.1631 92.9058 75.0821 92.1013 74.2845C91.2967 73.4869 90.2056 73.0378 89.0672 73.0356Z" fill="black"/>
<path d="M115.955 141.016C115.621 141.017 115.29 140.952 114.982 140.826C114.673 140.699 114.392 140.514 114.156 140.28C113.92 140.046 113.733 139.768 113.605 139.463C113.478 139.157 113.412 138.829 113.413 138.499V84.611C113.412 84.28 113.478 83.9522 113.605 83.6462C113.733 83.3403 113.92 83.0622 114.156 82.828C114.392 82.5938 114.673 82.4079 114.981 82.2812C115.29 82.1544 115.621 82.0891 115.955 82.0891C116.289 82.0891 116.62 82.1544 116.929 82.2812C117.238 82.4079 117.518 82.5938 117.754 82.828C117.99 83.0622 118.178 83.3403 118.305 83.6462C118.433 83.9522 118.498 84.28 118.497 84.611V138.478C118.501 138.811 118.437 139.14 118.311 139.449C118.185 139.757 117.998 140.037 117.761 140.273C117.525 140.509 117.244 140.696 116.933 140.824C116.623 140.952 116.291 141.017 115.955 141.016Z" fill="black"/>
<path d="M160.453 124.769C160.11 124.77 159.769 124.701 159.453 124.568C159.136 124.434 158.851 124.238 158.613 123.992L141.745 106.499L154.692 92.663C154.918 92.4198 155.191 92.2234 155.494 92.085C155.798 91.9465 156.125 91.8688 156.459 91.8563C156.793 91.8438 157.126 91.8967 157.439 92.0119C157.751 92.1272 158.038 92.3026 158.283 92.5281C158.528 92.7525 158.726 93.0226 158.865 93.3229C159.004 93.6232 159.083 93.9478 159.095 94.2781C159.108 94.6084 159.055 94.9379 158.939 95.2478C158.823 95.5577 158.646 95.8419 158.419 96.0841L148.728 106.445L162.294 120.514C162.525 120.753 162.706 121.035 162.826 121.343C162.947 121.652 163.005 121.981 162.997 122.311C162.99 122.642 162.916 122.968 162.782 123.27C162.647 123.573 162.453 123.846 162.212 124.074C161.738 124.521 161.108 124.77 160.453 124.769Z" fill="black"/>
<path d="M89.0961 79.4364C90.1126 79.4364 90.9367 78.6203 90.9367 77.6135C90.9367 76.6067 90.1126 75.7905 89.0961 75.7905C88.0795 75.7905 87.2554 76.6067 87.2554 77.6135C87.2554 78.6203 88.0795 79.4364 89.0961 79.4364Z" fill="black"/>
<path d="M143.396 79.4364C144.413 79.4364 145.237 78.6203 145.237 77.6135C145.237 76.6067 144.413 75.7905 143.396 75.7905C142.38 75.7905 141.556 76.6067 141.556 77.6135C141.556 78.6203 142.38 79.4364 143.396 79.4364Z" fill="black"/>
<path d="M55.5 137.5C38.8603 120.86 15.8333 116.167 0 117L5 78H28L64.5 114C66.1667 129.833 76.5 158.5 55.5 137.5Z" fill="#FFFEFD"/>
<path d="M177.007 137.5C193.647 120.86 216.674 116.167 232.507 117L227.507 78H204.507L168.007 114C166.341 129.833 156.007 158.5 177.007 137.5Z" fill="#FFFEFD"/>
</svg>
