<?xml version="1.0" encoding="utf-8"?>
<!-- Generator: Adobe Illustrator 26.0.3, SVG Export Plug-In . SVG Version: 6.00 Build 0)  -->
<svg version="1.1" id="Layer_1" xmlns="http://www.w3.org/2000/svg" xmlns:xlink="http://www.w3.org/1999/xlink" x="0px" y="0px"
	 viewBox="0 0 190 134" style="enable-background:new 0 0 190 134;" xml:space="preserve">
<style type="text/css">
	.st0{fill-rule:evenodd;clip-rule:evenodd;fill:#FFFEFD;}
</style>
<g>
	<path class="st0" d="M144.6,112.1C132.3,125.6,114.6,134,95,134c-19.6,0-37.3-8.4-49.6-21.9l-0.1-0.1C31.8,98.6,12.9,94.8,0,95.5
		L4.1,64h18.8l5.1,5c0-0.7,0-1.3,0-2C28,30,58,0,95,0c37,0,67,30,67,67c0,0.7,0,1.3,0,2l5.1-5h18.8l4.1,31.5
		C177.1,94.8,158.2,98.6,144.6,112.1C144.6,112,144.6,112.1,144.6,112.1z"/>
	<g>
		<path d="M68.7,101c-3.1,0-6-1.4-8.2-3.8c-2.2-2.4-3.4-5.7-3.4-9.2V71.4c0-0.3,0.1-0.6,0.2-0.9c0.1-0.3,0.3-0.5,0.5-0.8
			c0.2-0.2,0.4-0.4,0.7-0.5c0.3-0.1,0.5-0.2,0.8-0.2c0.6,0,1.1,0.2,1.5,0.7c0.4,0.4,0.6,1,0.6,1.6V88c0,2.2,0.8,4.3,2.2,5.9
			c1.4,1.6,3.3,2.4,5.3,2.4c2,0,3.9-0.9,5.3-2.4c1.4-1.6,2.2-3.7,2.2-5.9V64.4h-3.5c-2,0-4-0.9-5.4-2.5c-1.4-1.6-2.2-3.8-2.2-6.1
			c0-5,3.4-8.8,7.7-8.8c2,0,4,0.9,5.4,2.5c1.4,1.6,2.2,3.8,2.2,6.1v4.1h29v-4c0-2.3,0.8-4.5,2.3-6.1c1.5-1.6,3.4-2.5,5.5-2.5h0.3
			c2.1,0,4,0.9,5.5,2.5c1.5,1.6,2.3,3.8,2.3,6.1c0,2.3-0.8,4.5-2.3,6.1c-1.5,1.6-3.4,2.5-5.5,2.5h-3.9v34.2c0,0.6-0.2,1.2-0.6,1.6
			c-0.4,0.4-0.9,0.7-1.5,0.7c-0.3,0-0.5-0.1-0.8-0.2c-0.3-0.1-0.5-0.3-0.7-0.5c-0.2-0.2-0.3-0.5-0.4-0.8c-0.1-0.3-0.2-0.6-0.2-0.9
			V64.4h-29V88c0,3.4-1.2,6.7-3.4,9.2C74.8,99.6,71.8,101,68.7,101z M113.5,59.8h3.9c1,0,1.9-0.4,2.5-1.2c0.7-0.8,1.1-1.8,1.1-2.9
			c0-1.1-0.4-2.1-1.1-2.9c-0.7-0.8-1.6-1.2-2.5-1.2h-0.3c-1,0-1.9,0.4-2.5,1.2c-0.7,0.8-1.1,1.8-1.1,2.9V59.8z M72.7,51.7
			c-0.9,0-1.8,0.4-2.5,1.2c-0.7,0.7-1,1.7-1,2.8c0,2.4,1.6,4.1,3.5,4.1h3.5v-4.1c0-1-0.4-2-1-2.8C74.5,52.1,73.6,51.7,72.7,51.7z"/>
		<path d="M94.7,114.4c-0.3,0-0.5-0.1-0.8-0.2c-0.3-0.1-0.5-0.3-0.7-0.5c-0.2-0.2-0.3-0.5-0.5-0.8c-0.1-0.3-0.2-0.6-0.2-0.9V62.4
			c0-0.3,0.1-0.6,0.2-0.9c0.1-0.3,0.3-0.5,0.5-0.8c0.2-0.2,0.4-0.4,0.7-0.5c0.3-0.1,0.5-0.2,0.8-0.2c0.3,0,0.5,0.1,0.8,0.2
			c0.3,0.1,0.5,0.3,0.7,0.5c0.2,0.2,0.3,0.5,0.5,0.8c0.1,0.3,0.2,0.6,0.2,0.9v49.7c0,0.3,0,0.6-0.2,0.9c-0.1,0.3-0.3,0.5-0.4,0.8
			c-0.2,0.2-0.4,0.4-0.7,0.5C95.2,114.4,94.9,114.4,94.7,114.4z"/>
		<path d="M131,99.4c-0.3,0-0.6-0.1-0.8-0.2c-0.3-0.1-0.5-0.3-0.7-0.5l-13.8-16.1l10.6-12.8c0.2-0.2,0.4-0.4,0.7-0.5
			s0.5-0.2,0.8-0.2c0.3,0,0.5,0,0.8,0.1c0.3,0.1,0.5,0.3,0.7,0.5c0.2,0.2,0.4,0.5,0.5,0.7c0.1,0.3,0.2,0.6,0.2,0.9
			c0,0.3,0,0.6-0.1,0.9c-0.1,0.3-0.2,0.5-0.4,0.8l-7.9,9.6l11.1,13c0.2,0.2,0.3,0.5,0.4,0.8c0.1,0.3,0.1,0.6,0.1,0.9
			c0,0.3-0.1,0.6-0.2,0.9c-0.1,0.3-0.3,0.5-0.5,0.7C132.1,99.2,131.6,99.4,131,99.4z"/>
		<path d="M72.7,57.6c0.8,0,1.5-0.8,1.5-1.7c0-0.9-0.7-1.7-1.5-1.7c-0.8,0-1.5,0.8-1.5,1.7C71.2,56.9,71.9,57.6,72.7,57.6z"/>
		<path d="M117.1,57.6c0.8,0,1.5-0.8,1.5-1.7c0-0.9-0.7-1.7-1.5-1.7c-0.8,0-1.5,0.8-1.5,1.7C115.6,56.9,116.3,57.6,117.1,57.6z"/>
	</g>
</g>
</svg>
