<svg width="316" height="93" viewBox="0 0 316 93" fill="none" xmlns="http://www.w3.org/2000/svg">
<path d="M17.9293 74.9997C13.1759 74.9946 8.61864 73.0899 5.25746 69.7033C1.89628 66.3167 0.00573866 61.725 0.000732422 56.9357V33.8032C0.00572899 32.9474 0.346707 32.1283 0.949104 31.525C1.5515 30.9216 2.36638 30.5829 3.2158 30.5829C4.06347 30.5829 4.87641 30.9222 5.4758 31.5261C6.07519 32.1301 6.41193 32.9491 6.41193 33.8032V56.9167C6.41193 59.9944 7.62538 62.946 9.78531 65.1222C11.9452 67.2984 14.8747 68.521 17.9293 68.521C20.984 68.521 23.9134 67.2984 26.0734 65.1222C28.2333 62.946 29.4468 59.9944 29.4468 56.9167V24.1424H24.0379C20.9031 24.1424 17.8966 22.8877 15.6799 20.6543C13.4632 18.4209 12.2179 15.3917 12.2179 12.2332C12.1879 10.6456 12.4707 9.06773 13.0501 7.59103C13.6294 6.11432 14.4938 4.7681 15.5932 3.63033C16.6925 2.49255 18.005 1.58583 19.4545 0.962669C20.9041 0.339513 22.462 0.0123134 24.0379 0C27.1745 0.00504838 30.1809 1.26401 32.3971 3.50045C34.6132 5.73689 35.858 8.76801 35.858 11.9283V17.6447H80.6416V12.0807C80.6416 8.87672 81.9048 5.80394 84.1534 3.53836C86.402 1.27279 89.4518 0 92.6318 0H93.029C96.2057 0.00504844 99.2506 1.28006 101.495 3.54509C103.74 5.81013 105 8.88002 105 12.0807C104.995 15.2781 103.732 18.3432 101.488 20.6041C99.2445 22.865 96.2024 24.1374 93.029 24.1424H87.0528V71.646C87.0528 72.5001 86.716 73.3192 86.1166 73.9231C85.5173 74.527 84.7043 74.8663 83.8566 74.8663C83.4353 74.8688 83.0177 74.7874 82.6277 74.6267C82.2378 74.466 81.8832 74.2291 81.5844 73.9299C81.2856 73.6306 81.0485 73.2747 80.8867 72.8828C80.7249 72.4908 80.6416 72.0705 80.6416 71.646V24.1424H35.858V56.9357C35.853 61.725 33.9624 66.3167 30.6012 69.7033C27.2401 73.0899 22.6828 74.9946 17.9293 74.9997ZM87.0528 17.6828H93.029C94.5036 17.6828 95.9179 17.0926 96.9606 16.042C98.0033 14.9914 98.5891 13.5665 98.5891 12.0807C98.5649 10.6008 97.9719 9.18801 96.9349 8.13962C95.8979 7.09123 94.4977 6.48898 93.029 6.45957H92.6318C91.1598 6.4841 89.7548 7.08419 88.7138 8.13309C87.6727 9.182 87.0771 10.5976 87.0528 12.0807V17.6828ZM24.0379 6.45957C22.6017 6.46462 21.226 7.04301 20.2121 8.06805C19.1983 9.09309 18.6291 10.4812 18.6291 11.9283C18.6038 12.6635 18.7246 13.3963 18.9841 14.0839C19.2437 14.7714 19.6369 15.3999 20.1406 15.9323C20.6444 16.4647 21.2487 16.8904 21.9179 17.1845C22.5871 17.4786 23.3079 17.635 24.0379 17.6447H29.4468V11.9283C29.4468 10.4845 28.8801 9.09923 27.8704 8.07474C26.8607 7.05024 25.4898 6.46964 24.0568 6.45957H24.0379Z" fill="white"/>
<path d="M57.4902 91.9994C56.5647 91.9994 55.6771 91.6671 55.0227 91.0756C54.3682 90.4841 54.0006 89.6818 54.0006 88.8453V21.1539C53.9978 20.739 54.0862 20.3278 54.2606 19.944C54.435 19.5602 54.692 19.2115 55.0165 18.9181C55.3411 18.6247 55.7269 18.3925 56.1515 18.2349C56.5761 18.0772 57.0312 17.9973 57.4902 17.9998C57.9502 17.9974 58.4062 18.0771 58.832 18.2345C59.2578 18.3919 59.6449 18.6239 59.9711 18.917C60.2973 19.2101 60.5562 19.5587 60.7329 19.9426C60.9096 20.3264 61.0005 20.7381 61.0005 21.1539V88.8453C60.995 89.6836 60.6228 90.4858 59.9651 91.0767C59.3073 91.6677 58.4176 91.9994 57.4902 91.9994Z" fill="white"/>
<path d="M113.819 71.9993C113.384 72.0027 112.952 71.917 112.551 71.7474C112.15 71.5778 111.788 71.328 111.489 71.0136L90.0002 48.6838L106.485 31.036C106.773 30.7243 107.121 30.4724 107.508 30.2949C107.896 30.1174 108.315 30.0179 108.741 30.002C109.167 29.9861 109.592 30.0543 109.992 30.2025C110.392 30.3507 110.758 30.576 111.069 30.8654C111.694 31.4491 112.063 32.2537 112.095 33.1051C112.127 33.9565 111.82 34.7862 111.241 35.4148L98.9014 48.6838L116.092 66.6348C116.678 67.2356 117.004 68.0397 117 68.8755C116.997 69.7112 116.664 70.5125 116.073 71.1084C115.471 71.6901 114.66 72.0106 113.819 71.9993Z" fill="white"/>
<path d="M24.0007 14.9997C25.1053 14.9997 26.0007 13.8805 26.0007 12.4997C26.0007 11.119 25.1053 9.99976 24.0007 9.99976C22.8962 9.99976 22.0007 11.119 22.0007 12.4997C22.0007 13.8805 22.8962 14.9997 24.0007 14.9997Z" fill="white"/>
<path d="M92.5002 14.9997C93.8809 14.9997 95.0002 13.8805 95.0002 12.4997C95.0002 11.119 93.8809 9.99976 92.5002 9.99976C91.1195 9.99976 90.0002 11.119 90.0002 12.4997C90.0002 13.8805 91.1195 14.9997 92.5002 14.9997Z" fill="white"/>
<path d="M157.999 12.1853C158.015 13.1109 157.853 14.0317 157.519 14.9036C157.213 15.7061 156.728 16.4391 156.096 17.0542C155.434 17.6821 154.634 18.1693 153.75 18.4823C152.718 18.8432 151.621 19.0184 150.518 18.9984C149.403 19.0182 148.294 18.8431 147.249 18.4823C146.365 18.1693 145.565 17.6821 144.903 17.0542C144.271 16.4391 143.786 15.7061 143.481 14.9036C143.155 14.0296 142.993 13.1103 143 12.1853V2H146.916V12.1853C146.912 12.6732 147.006 13.1576 147.193 13.6133C147.352 14.0357 147.603 14.4226 147.932 14.7488C148.254 15.0672 148.644 15.3192 149.077 15.4886C149.533 15.6694 150.023 15.763 150.518 15.7639C151.007 15.764 151.491 15.6703 151.94 15.4886C152.371 15.315 152.76 15.0635 153.085 14.7488C153.402 14.4138 153.652 14.0294 153.824 13.6133C153.997 13.1544 154.084 12.6715 154.083 12.1853V2.13764H157.999V12.1853Z" fill="white"/>
<path d="M169.019 2H174.412L182.044 13.8099V2H186V18.9999H180.831L172.975 6.90756V18.9999H169L169.019 2Z" fill="white"/>
<path d="M197 2H200V18.9999H197.028L197 2Z" fill="white"/>
<path d="M214.052 5.31878H209V2H223V5.31878H217.947V18.9999H214.052V5.31878Z" fill="white"/>
<path d="M232 2H243.576V5.48716H235.764V8.62562H243.134V12.0256H235.764V15.5128H244V18.9999H232V2Z" fill="white"/>
<path d="M254 2.00007H260.086C261.498 1.99629 262.905 2.1504 264.277 2.45904C265.538 2.72371 266.724 3.22881 267.76 3.94186C268.769 4.63297 269.577 5.54234 270.115 6.58976C270.739 7.82618 271.041 9.18052 270.995 10.544C271.024 11.8019 270.729 13.0483 270.134 14.1804C269.601 15.2054 268.83 16.1095 267.875 16.8283C266.888 17.5507 265.766 18.101 264.564 18.4524C263.289 18.8241 261.959 19.0088 260.622 18.9996H254V2.00007ZM258.057 15.5397H260.162C261.044 15.5457 261.924 15.4568 262.784 15.2749C263.537 15.1213 264.247 14.8269 264.87 14.4099C265.475 13.9842 265.956 13.426 266.268 12.7859C266.635 12.0259 266.812 11.1992 266.784 10.3674C266.805 9.61009 266.628 8.85924 266.268 8.17851C265.934 7.59104 265.471 7.07405 264.909 6.66037C264.302 6.24247 263.613 5.93676 262.88 5.76008C262.088 5.56052 261.27 5.4596 260.449 5.45999H258.019L258.057 15.5397Z" fill="white"/>
<path d="M146.42 41.4951H141V37.9998H156V41.4951H150.599V55.9997H146.42V41.4951Z" fill="white"/>
<path d="M164 37.9998H176.54V41.677H168.065V44.9681H176.06V48.6453H168.065V52.3225H177V55.9997H164V37.9998Z" fill="white"/>
<path d="M187 37.9998H191.205V52.2768H199V55.9997H187.099L187 37.9998Z" fill="white"/>
<path d="M222.999 48.7767C223.007 49.7571 222.844 50.7315 222.519 51.6578C222.218 52.5106 221.733 53.2884 221.097 53.9372C220.44 54.6087 219.638 55.126 218.751 55.4507C217.712 55.8334 216.609 56.019 215.5 55.9978C214.391 56.0208 213.288 55.8351 212.249 55.4507C211.357 55.1261 210.549 54.6091 209.885 53.9372C209.255 53.2873 208.775 52.5094 208.481 51.6578C208.147 50.7337 207.984 49.7577 208.001 48.7767V37.9998H211.917V48.6308C211.914 49.1463 212.001 49.6583 212.175 50.1443C212.34 50.589 212.591 50.9978 212.914 51.3478C213.234 51.6874 213.625 51.9549 214.059 52.1319C214.513 52.3313 215.004 52.4308 215.5 52.4237C215.996 52.4308 216.488 52.3313 216.941 52.1319C217.372 51.959 217.758 51.6907 218.068 51.3478C218.398 51.0031 218.65 50.5928 218.806 50.1443C218.996 49.6618 219.09 49.1481 219.084 48.6308V37.9998H222.999V48.7767Z" fill="white"/>
<path d="M250 54.3404C248.779 54.9339 247.471 55.3606 246.116 55.6069C244.79 55.8725 243.435 56.0041 242.078 55.9994C240.702 56.0087 239.336 55.7974 238.039 55.375C236.859 54.9818 235.776 54.3753 234.855 53.5912C233.937 52.7952 233.216 51.8281 232.738 50.755C232.236 49.5607 231.985 48.2893 232.001 47.0089C231.983 45.7342 232.234 44.4684 232.738 43.2808C233.211 42.1999 233.933 41.2261 234.855 40.4267C235.77 39.6354 236.854 39.0278 238.039 38.6429C239.332 38.206 240.7 37.9884 242.078 38.0007C243.475 37.9857 244.868 38.1539 246.213 38.5002C247.457 38.8468 248.595 39.4579 249.534 40.284L246.621 43.1916C246.07 42.6704 245.41 42.2576 244.68 41.9786C243.837 41.6841 242.94 41.5447 242.039 41.5683C241.221 41.5617 240.41 41.701 239.651 41.9786C238.96 42.2425 238.338 42.6376 237.826 43.1381C237.292 43.6448 236.887 44.2541 236.641 44.9219C236.365 45.6314 236.227 46.3802 236.233 47.1338C236.223 47.8877 236.361 48.637 236.641 49.3457C236.887 50.0136 237.292 50.6228 237.826 51.1296C238.333 51.6356 238.956 52.0317 239.651 52.289C240.407 52.5755 241.221 52.7151 242.039 52.6993C242.827 52.7156 243.613 52.6193 244.369 52.4139C244.902 52.2695 245.422 52.0845 245.922 51.8609V49.0603H242.563V45.4927H249.883L250 54.3404Z" fill="white"/>
<path d="M275.999 48.7769C276.007 49.7573 275.834 50.7317 275.487 51.6581C275.166 52.5108 274.648 53.2886 273.97 53.9375C273.269 54.609 272.413 55.1263 271.467 55.451C270.365 55.8323 269.196 56.0179 268.019 55.9981C266.83 56.019 265.647 55.8335 264.532 55.451C263.586 55.1263 262.73 54.609 262.029 53.9375C261.351 53.2886 260.833 52.5108 260.512 51.6581C260.165 50.7317 259.992 49.7573 260 48.7769V37.9998H264.177V48.631C264.171 49.1483 264.271 49.662 264.473 50.1445C264.632 50.5963 264.902 51.0081 265.261 51.3481C265.595 51.6953 266.014 51.9641 266.482 52.1322C266.965 52.3338 267.49 52.4335 268.019 52.4239C268.542 52.4332 269.061 52.3335 269.536 52.1322C269.996 51.9592 270.408 51.691 270.738 51.3481C271.097 51.0043 271.372 50.5941 271.546 50.1445C271.732 49.6585 271.825 49.1464 271.822 48.631V37.9998H275.999V48.7769Z" fill="white"/>
<path d="M143.06 74.9995H147.301V82.0607L154.728 74.9995H160.263L151.741 82.8904L161 91.9994H155.026L147.241 83.932V91.9994H143L143.06 74.9995Z" fill="white"/>
<path d="M168 74.9995H172V91.9994H168V74.9995Z" fill="white"/>
<path d="M186.413 78.3183H181V74.9995H196V78.3183H190.587V91.9994H186.413V78.3183Z" fill="white"/>
<path d="M216.353 79.7943C215.945 79.3476 215.428 78.9936 214.843 78.7607C214.196 78.5001 213.493 78.3724 212.785 78.3865C212.033 78.3798 211.29 78.5259 210.609 78.8142C209.943 79.0754 209.348 79.4645 208.864 79.9547C208.361 80.476 207.975 81.0813 207.727 81.7367C207.447 82.4392 207.308 83.1814 207.315 83.9285C207.304 84.6874 207.444 85.4418 207.727 86.156C207.975 86.8113 208.361 87.4166 208.864 87.9379C209.336 88.4214 209.909 88.815 210.55 89.0963C211.209 89.3682 211.924 89.508 212.648 89.5061C213.434 89.5231 214.212 89.351 214.902 89.0072C215.567 88.6943 216.128 88.227 216.53 87.6529L220 90.0051C219.231 90.996 218.181 91.7783 216.961 92.2682C215.768 92.7448 214.48 92.9935 213.177 92.9988C211.786 93.0127 210.404 92.7953 209.099 92.3573C207.901 91.9658 206.801 91.3598 205.864 90.5753C204.949 89.768 204.228 88.7972 203.747 87.7241C203.228 86.5339 202.975 85.2619 203.002 83.982C202.976 82.7079 203.23 81.442 203.747 80.2576C204.228 79.1845 204.949 78.2138 205.864 77.4064C206.796 76.6159 207.897 76.0092 209.099 75.6245C210.405 75.1926 211.787 74.9812 213.177 75.0008C213.735 75.0001 214.293 75.0419 214.843 75.1255C215.426 75.218 215.997 75.3612 216.549 75.5532C217.118 75.7477 217.657 76.0051 218.157 76.3194C218.68 76.6558 219.149 77.0578 219.549 77.5134L216.353 79.7943Z" fill="white"/>
<path d="M228.018 74.9995H231.835V81.337H239.2V74.9995H243V91.9994H239.2V84.6557H231.817V91.9994H228L228.018 74.9995Z" fill="white"/>
<path d="M254 74.9995H266.539V78.6918H258.064V82.0149H266.06V85.6148H258.064V89.3071H266.999V92.9994H254V74.9995Z" fill="white"/>
<path d="M277 74.9995H282.374L290.025 86.8094V74.9995H293.999V91.9994H288.812L280.974 79.9071V91.9994H277.018L277 74.9995Z" fill="white"/>
<path d="M313.245 79.6151C312.901 79.2203 312.448 78.9251 311.936 78.7631C311.432 78.588 310.902 78.4921 310.365 78.4791C310.069 78.4814 309.774 78.5171 309.487 78.5856C309.179 78.6407 308.882 78.7426 308.608 78.8873C308.354 79.0207 308.131 79.2019 307.954 79.4198C307.779 79.6661 307.688 79.9572 307.692 80.2541C307.68 80.4833 307.73 80.7116 307.838 80.9169C307.946 81.1222 308.108 81.2974 308.309 81.4257C308.779 81.7352 309.296 81.9746 309.842 82.1357C310.459 82.331 311.132 82.5085 311.842 82.7037C312.545 82.8973 313.217 83.1778 313.843 83.538C314.463 83.8923 314.988 84.3784 315.376 84.9581C315.825 85.682 316.04 86.5155 315.993 87.3544C316.013 88.213 315.821 89.064 315.432 89.8395C315.079 90.5345 314.56 91.1421 313.918 91.6146C313.261 92.0932 312.512 92.4431 311.712 92.6441C310.848 92.8799 309.955 92.9994 309.057 92.9991C307.949 93.0075 306.848 92.8334 305.804 92.4844C304.762 92.1257 303.808 91.5702 302.999 90.8513L305.822 87.8869C306.219 88.4045 306.746 88.8195 307.355 89.094C307.937 89.367 308.576 89.5126 309.225 89.52C309.552 89.5187 309.878 89.483 310.197 89.4135C310.51 89.3367 310.811 89.2234 311.095 89.0762C311.344 88.9361 311.56 88.7488 311.73 88.526C311.888 88.2866 311.973 88.0098 311.973 87.7272C311.983 87.489 311.929 87.2524 311.818 87.0386C311.707 86.8248 311.542 86.6405 311.338 86.5024C310.86 86.1809 310.338 85.9241 309.786 85.7391L307.748 85.1178C307.04 84.9091 306.356 84.6294 305.71 84.2835C305.088 83.9267 304.553 83.4488 304.14 82.8812C303.697 82.1873 303.482 81.3839 303.523 80.5736C303.499 79.7411 303.699 78.9166 304.102 78.1773C304.453 77.4809 304.972 76.8728 305.617 76.4022C306.273 75.9157 307.022 75.5541 307.823 75.3372C308.655 75.1084 309.518 74.9948 310.384 74.9999C311.385 74.9911 312.381 75.1288 313.338 75.4082C314.289 75.6747 315.165 76.1419 315.899 76.775L313.245 79.6151Z" fill="white"/>
</svg>
